<svg width="534" height="830" xmlns="http://www.w3.org/2000/svg" class="icon">
 <defs>
  <style type="text/css"/>
 </defs>
 <g>
  <title>background</title>
  <rect fill="none" id="canvas_background" height="832" width="536" y="-1" x="-1"/>
 </g>
 <g>
  <title>Layer 1</title>
  <path id="svg_1" fill="#e6e6e6" d="m148.9,799a118.2,29.6 0 1 0 236.4,0a118.2,29.6 0 1 0 -236.4,0z"/>
  <path id="svg_2" class="selected" fill="#d81e06" d="m533,267.4c0,-146.9 -119,-266 -266,-266s-266,119 -266,266c0,44 10.7,85.4 29.6,122l-1.8,0l238.2,410.3l215.3,-376.2c31.8,-43.9 50.7,-97.8 50.7,-156.1z"/>
  <path id="svg_3" fill="#FFFFFF" d="m267,267.4m-206.9,0a206.9,206.9 0 1 0 413.8,0a206.9,206.9 0 1 0 -413.8,0z"/>
  <path id="svg_4" class="selected" fill="#d81e06" d="m276,282.8s-38,-18.4 -68.6,-29.2c-5.6,-1.9 -75.8,-30.9 -25.8,-49.5c24,-7.5 48.4,-12.5 73,-15c12.8,-1.7 38.2,-19.8 11.5,-33.4c-5.3,-2.8 -13.7,-15.6 21.4,-19.5c8.5,0 23.3,-22.3 -4.9,-14.7c-28.2,7.5 -12.4,7.8 -27.8,9.7s-52.5,13.6 -35.9,19.5c16.7,5.8 47,10.9 22.9,19.5c-5.8,2.2 -48.1,6.4 -76.7,15.3c-21.4,7 -62.6,39 -39.1,91.8c10.3,22.8 54,58.2 62.2,66.8c20.4,19 37.6,43.1 50.6,71l176,0c-33.5,-63.4 -82.4,-110 -138.8,-132.3z"/>
  <path id="svg_5" class="selected" fill="#d81e06" d="m267.3,244.3l23.3,28.3l12.1,-15.7l-18.5,-22.4l-16.9,9.8zm139.8,-18.1l-25.5,21.7l-13.5,-16.1l-9.4,8.3l21.4,25.7l34.9,-29.8l-7.9,-9.8zm-4.5,-46.6l-26.9,-32.7c-1.6,-1.9 -3.9,-3.2 -6.4,-3.4c-2.5,-0.2 -5,0.6 -6.8,2.2l-80.3,69.4l38.9,47.5l80.3,-69.4c4,-3.6 4.5,-9.6 1.2,-13.6zm-15.3,14l-5.5,-6.7l6.6,-5.7l5.5,6.7l-6.6,5.7z"/>
 </g>
</svg>