<svg xmlns="http://www.w3.org/2000/svg" width="32" height="32" class="icon"><defs><style type="text/css"/><linearGradient id="svg_27" x1="69.644%" x2="54.043%" y1="0%" y2="108.457%"><stop offset="0%" stop-color="#29CDFF"/><stop offset="37.86%" stop-color="#148EFF"/><stop offset="100%" stop-color="#0A60FF"/></linearGradient><linearGradient id="svg_25" x1="69.691%" x2="16.723%" y1="-12.974%" y2="117.391%"><stop offset="0%" stop-color="#FA816E"/><stop offset="41.473%" stop-color="#F74A5C"/><stop offset="100%" stop-color="#F51D2C"/></linearGradient></defs><g><title>background</title><rect id="canvas_background" width="34" height="34" x="-1" y="-1" fill="none"/></g><g><title>Layer 1</title><desc>Created with Sketch.</desc><g id="svg_3" stroke="null"><path id="svg_1" fill="url(#svg_27)" stroke="null" d="m15.44315,31.36236c-3.59115,0 -7.03712,-1.29655 -9.79717,-3.70456c-3.01954,-2.63484 -4.82963,-6.26409 -5.0991,-10.21907c-0.558,-8.21663 5.67252,-15.35627 13.88915,-15.91427a14.86179,14.86179 0 0 1 3.5104,0.17602a0.45456,0.45456 0 0 1 -0.15243,0.89461a13.99349,13.99349 0 0 0 -3.29627,-0.16604c-7.71851,0.52533 -13.56977,7.23038 -13.04535,14.94798c0.25223,3.71273 1.95345,7.1215 4.79061,9.59665c2.83626,2.47697 6.44827,3.71091 10.15555,3.4487c7.71851,-0.52443 13.56977,-7.23038 13.04535,-14.94798a13.9454,13.9454 0 0 0 -1.6631,-5.73513a0.45366,0.45366 0 1 1 0.79753,-0.43279a14.83547,14.83547 0 0 1 1.77107,6.10531c0.26856,3.95407 -1.03524,7.79563 -3.67008,10.81517c-2.63484,3.02044 -6.26409,4.83053 -10.21907,5.10001c-0.33933,0.0245 -0.67958,0.03539 -1.0171,0.03539l0,0z"/><path id="svg_2" fill="url(#svg_25)" stroke="null" d="m27.36706,10.02236a2.17392,2.17392 0 0 1 -2.16394,-2.02331l0,-0.00181a2.17483,2.17483 0 0 1 2.01877,-2.31274a2.1594,2.1594 0 0 1 2.31365,2.01968a2.1594,2.1594 0 0 1 -0.52987,1.57419a2.15487,2.15487 0 0 1 -1.63861,0.744l0,0zm-1.25844,-2.085c0.04718,0.695 0.6578,1.21126 1.34554,1.17406c0.33661,-0.02178 0.6451,-0.17511 0.86648,-0.43007c0.22229,-0.25405 0.33117,-0.57977 0.30849,-0.91639a1.27296,1.27296 0 0 0 -1.34645,-1.17497a1.2657,1.2657 0 0 0 -1.17406,1.34736l0,0zm-8.05512,8.46523l5.48652,-0.67867l-0.50265,-0.57705l-7.50983,0.59066l6.12164,4.45128c-1.90082,0.11886 -8.81727,0.67867 -8.81727,0.67867l-1.8609,3.13749l14.81279,-2.7165l0,-0.00998l-7.73031,-4.8759l0,0zm4.80694,-9.03049c0.00181,-2.56497 -2.10134,-4.65179 -4.68627,-4.65179c-2.58403,0 -4.68718,2.0723 -4.68718,4.62185c0.00363,0.6941 0.15969,1.37821 0.45638,2.00607c0.6696,1.44444 3.04313,4.39139 3.93139,5.4711c0.15697,0.19053 0.44912,0.18691 0.60155,-0.00635c0.96901,-1.22941 3.1266,-4.01758 3.8833,-5.42029c0.35657,-0.65962 0.50084,-1.24574 0.50084,-2.02059l0,0.00001zm-1.43718,2.3572a1.80555,1.80555 0 0 1 -1.80283,-1.80192a1.80555,1.80555 0 0 1 1.80283,-1.80283a1.80555,1.80555 0 0 1 1.80283,1.80374a1.80555,1.80555 0 0 1 -1.80283,1.80102zm4.27798,2.92336a1.69123,1.69123 0 0 0 -1.69668,-1.68397c-0.93544,0 -1.69668,0.75035 -1.69668,1.67309c0.00181,0.25133 0.05807,0.49902 0.16513,0.72585c0.24225,0.52261 1.10148,1.58961 1.42357,1.98067a0.13973,0.13973 0 0 0 0.21775,-0.00181c0.35113,-0.44458 1.13142,-1.45442 1.40543,-1.96161c0.12884,-0.23953 0.18146,-0.45184 0.18146,-0.7322l0,0zm-5.97466,-2.27463a0.65327,0.65327 0 1 1 0,-1.30471a0.65327,0.65327 0 0 1 0,1.30471z"/></g></g></svg>